<?xml version="1.0" standalone="no"?>
<!DOCTYPE svg PUBLIC "-//W3C//DTD SVG 20010904//EN"
 "http://www.w3.org/TR/2001/REC-SVG-20010904/DTD/svg10.dtd">
<svg version="1.0" xmlns="http://www.w3.org/2000/svg"
 width="128.000000pt" height="128.000000pt" viewBox="0 0 128.000000 128.000000"
 preserveAspectRatio="xMidYMid meet">

<g transform="translate(0.000000,128.000000) scale(0.100000,-0.100000)"
fill="#000000" stroke="none">
<path d="M390 1264 c-191 -50 -326 -187 -375 -379 -28 -111 -12 -231 45 -345
36 -71 125 -164 196 -204 158 -90 364 -87 514 8 l55 35 191 -189 c122 -122
197 -190 211 -190 24 0 53 30 53 55 0 11 -80 99 -190 209 l-189 191 35 55 c95
150 98 356 8 514 -107 189 -350 294 -554 240z m283 -131 c121 -58 206 -169
225 -298 41 -266 -187 -494 -453 -453 -129 19 -240 104 -298 225 -29 62 -32
76 -32 168 0 91 3 106 31 165 34 73 105 150 168 182 73 38 118 48 206 45 72
-2 95 -7 153 -34z"/>
</g>
</svg>
